<svg xmlns="http://www.w3.org/2000/svg" width="512" height="512" viewBox="0 0 512 512">
  <rect x="24" y="24" width="464" height="464" rx="108" fill="#025AC6"/>
  <g transform="translate(256,256)" stroke="#FFB725" fill="none" stroke-width="10" opacity="0.9">
    <circle r="152"/>
    <ellipse rx="58" ry="152"/>
    <ellipse rx="115" ry="152"/>
    <line x1="-152" y1="0" x2="152" y2="0"/>
    <path d="M-143 -76 A 170 88 0 0 1 143 -76" stroke-width="8"/>
    <path d="M-143 76 A 170 88 0 0 0 143 76" stroke-width="8"/>
  </g>
  <g stroke="#013e8a" stroke-linecap="round" fill="none" opacity="0.55">
    <circle cx="188" cy="196" r="50" stroke-width="34"/>
    <path d="M224 232 L330 338" stroke-width="34"/>
    <path d="M330 338 L330 374" stroke-width="34"/>
    <path d="M298 306 L322 282" stroke-width="34"/>
  </g>
  <g stroke="#FFB725" stroke-linecap="round" fill="none">
    <circle cx="188" cy="196" r="50" stroke-width="26"/>
    <circle cx="188" cy="196" r="15" fill="#025AC6" stroke-width="10"/>
    <path d="M224 232 L330 338" stroke-width="26"/>
    <path d="M330 338 L330 374" stroke-width="26"/>
    <path d="M298 306 L322 282" stroke-width="26"/>
  </g>
</svg>